<svg xmlns="http://www.w3.org/2000/svg" viewBox="0 0 82.41 55.51"><defs><style>.cls-1{fill:#537715;}.cls-2{fill:#446b01;}.cls-3{fill:#98cc45;}.cls-4{fill:#d3e9af;}</style></defs><g id="Layer_2" data-name="Layer 2"><g id="OBJECTS"><path class="cls-1" d="M42.53,50.42A22.67,22.67,0,1,1,65.19,27.75,22.7,22.7,0,0,1,42.53,50.42Z"/><path class="cls-2" d="M82.41,52.13V38c0-1.49,0-37.1,0-37.1h0s-7.45,3.74-7.45,31.48c6.46,1.81,3.42,6.19,2.67,8.18-1.25,3.25,0,11.54,0,11.54h0s0,0,0,0a2.41,2.41,0,0,0,4.81,0v0Z"/><path class="cls-2" d="M12.75,15.07,11.17,1.33H9.7L10.12,15a.73.73,0,0,1-.73.75H9.11A.73.73,0,0,1,8.38,15V1.33H7.1V15.12a.73.73,0,0,1-1.46,0V1.33H4.23V15.12a.73.73,0,0,1-.72.73H3.25a.72.72,0,0,1-.72-.75L3,1.33H1.66L0,14.36s0,.49,0,.68a6.9,6.9,0,0,0,2.39,5c1.12,1.07,2.18,1.81,2.55,3.38.36,2.58-.5,6.24-.75,8.78a191.46,191.46,0,0,0-.53,20.24h0v.05A2.67,2.67,0,0,0,6.35,55h0A2.71,2.71,0,0,0,9.1,52.46s0,0,0-.05h0s0-14.38-.54-20.24c-.21-2.47-1.05-6-.77-8.58A10.24,10.24,0,0,1,10.45,20a7,7,0,0,0,2.3-4.5Z"/><path class="cls-2" d="M42.53,0A27.76,27.76,0,1,0,70.28,27.75,27.76,27.76,0,0,0,42.53,0Zm0,49.26A21.51,21.51,0,1,1,64,27.75,21.54,21.54,0,0,1,42.53,49.26Z"/><path class="cls-3" d="M43.41,41.47s-.87-9.75,3.71-16.09A68.67,68.67,0,0,1,58.93,13.46,39.07,39.07,0,0,1,57.8,32.17C55.27,39.74,43.41,41.47,43.41,41.47Z"/><path class="cls-3" d="M41.58,36.25s4.56-13.44-1.13-19.32-17.07-7-17.07-7,2,11.68,5,18C33.19,38.16,41.58,36.25,41.58,36.25Z"/><path class="cls-4" d="M30.21,16.56a39,39,0,0,1,9.44,17.23c1.74,6.51,1.21,13.37,2.79,19.84.08.32.51.21.54-.08.92-7-1-15.45-3.08-22.07A37.92,37.92,0,0,0,30.76,16c-.35-.36-.9.19-.55.55Z"/><path class="cls-4" d="M53.91,23.5C48,29.76,40.63,37.76,42.28,47.15c.06.32.53.23.55-.07.44-9.71,5.43-16,11.81-22.85.45-.48-.27-1.21-.73-.73Z"/></g></g></svg>