<?xml version="1.0" standalone="no"?>
<!DOCTYPE svg PUBLIC "-//W3C//DTD SVG 20010904//EN"
 "http://www.w3.org/TR/2001/REC-SVG-20010904/DTD/svg10.dtd">
<svg version="1.0" xmlns="http://www.w3.org/2000/svg"
 width="180.000000pt" height="180.000000pt" viewBox="0 0 180.000000 180.000000"
 preserveAspectRatio="xMidYMid meet">
<metadata>
Created by potrace 1.14, written by Peter Selinger 2001-2017
</metadata>
<g transform="translate(0.000000,180.000000) scale(0.100000,-0.100000)"
fill="#000000" stroke="none">
<path d="M840 1507 c-3 -3 -21 -8 -42 -11 -92 -14 -207 -75 -292 -155 -36 -33
-106 -133 -134 -191 -30 -63 -50 -175 -47 -270 6 -164 60 -287 179 -405 124
-123 266 -180 441 -177 264 6 495 187 571 447 17 58 23 217 11 275 -43 210
-203 391 -407 461 -61 21 -266 40 -280 26z"/>
<path d="M103 1483 c-10 -3 -13 -43 -13 -153 0 -136 -7 -176 -27 -157 -5 5 -5
99 1 240 2 59 0 67 -16 67 -13 0 -18 -8 -19 -32 -2 -37 -3 -53 -12 -116 -15
-99 -19 -163 -13 -188 4 -14 28 -48 54 -76 45 -48 47 -53 47 -107 -1 -31 -4
-76 -8 -101 -10 -66 -20 -257 -20 -393 0 -99 3 -121 18 -137 23 -25 67 -26 89
-1 16 18 17 40 12 253 -3 128 -8 244 -11 258 -3 14 -8 57 -11 95 -5 68 -4 71
27 105 69 76 81 103 75 167 -23 224 -30 264 -49 274 -18 10 -19 6 -12 -144 5
-114 3 -157 -5 -162 -22 -13 -25 11 -25 159 0 125 -2 146 -15 146 -13 0 -15
-21 -15 -151 0 -138 -6 -179 -24 -151 -4 7 -7 77 -6 158 0 80 -2 147 -5 148
-3 2 -11 1 -17 -1z"/>
<path d="M1773 1468 c-76 -81 -130 -312 -137 -590 -2 -71 0 -78 18 -84 35 -11
66 -46 66 -75 0 -16 -9 -50 -19 -77 -16 -41 -19 -68 -16 -162 5 -129 17 -160
65 -160 19 0 33 7 40 19 7 14 9 207 8 586 l-3 567 -22 -24z"/>
</g>
</svg>
